# xmcd
#
# Track frame offsets:
#	150
#	20380
#	32331
#	53736
#	73759
#	88253
#	104497
#	122193
#	140350
#	162676
#
# Disc length: 2491 seconds
#
# Revision: 0
# Processed by: cddbd v1.5.2PL0 Copyright (c) Steve Scherf et al.
# Submitted via: dBpowerAMP V4.0
#
DISCID=8a09b90a
DTITLE=May Palmer - Mo' May: A Celebration Of The Motown Era
DYEAR=1900
DGENRE=Blues
TTITLE0=Stand By Me
TTITLE1=I Second That Emotion
TTITLE2=At Last
TTITLE3=Sittin' On The Dock Of The Bay
TTITLE4=How Sweet It Is (To Be Loved By You)
TTITLE5=You've Really Got A Hold On Me
TTITLE6=Ooh Baby Baby
TTITLE7=Respect
TTITLE8=Mustang Sally
TTITLE9=I Heard It Through The Grapevine
EXTD=
EXTT0=
EXTT1=
EXTT2=
EXTT3=
EXTT4=
EXTT5=
EXTT6=
EXTT7=
EXTT8=
EXTT9=
PLAYORDER=
